<?xml version="1.0" standalone="no"?>
<!DOCTYPE svg PUBLIC "-//W3C//DTD SVG 20010904//EN"
 "http://www.w3.org/TR/2001/REC-SVG-20010904/DTD/svg10.dtd">
<svg version="1.0" xmlns="http://www.w3.org/2000/svg"
 width="100.000000pt" height="100.000000pt" viewBox="0 0 100.000000 100.000000"
 preserveAspectRatio="xMidYMid meet">
<metadata>
Created by potrace 1.11, written by Peter Selinger 2001-2013
</metadata>
<g transform="translate(0.000000,100.000000) scale(0.100000,-0.100000)"
fill="#000000" stroke="none">
<path d="M433 813 c-7 -2 -45 -46 -85 -96 -39 -50 -77 -98 -84 -106 -7 -9 -62
-78 -123 -153 -97 -122 -109 -142 -106 -170 5 -40 46 -78 82 -78 17 0 39 14
67 42 42 44 55 59 141 172 28 35 55 67 61 69 8 4 10 -29 8 -114 -4 -116 -3
-120 20 -144 18 -18 36 -25 65 -25 45 0 51 6 186 184 44 57 83 105 88 105 4 1
7 -17 7 -38 l0 -40 31 11 c29 10 87 7 119 -6 13 -5 15 17 15 170 l0 176 -28
24 c-34 29 -76 31 -108 5 -13 -10 -69 -75 -124 -144 l-100 -126 -5 124 c-6
143 -17 166 -79 164 -20 0 -42 -3 -48 -6z"/>
<path d="M810 386 c-25 -8 -40 -22 -53 -48 -16 -33 -17 -40 -3 -71 44 -107
204 -53 174 59 -13 51 -65 77 -118 60z"/>
</g>
</svg>
