<svg width="24" height="24" viewBox="0 0 24 24" fill="none" xmlns="http://www.w3.org/2000/svg">
<g id="Icon/Robot">
<g id="Vector" filter="url(#filter0_i_34377_215)">
<path d="M2.1 10.875H3.2V17.625H2.1C1.9555 17.6252 1.81238 17.5962 1.67884 17.5397C1.54531 17.4833 1.42398 17.4004 1.3218 17.2959C1.21962 17.1914 1.1386 17.0673 1.08338 16.9307C1.02816 16.7942 0.999827 16.6478 1 16.5V12C0.999827 11.8522 1.02816 11.7058 1.08338 11.5693C1.1386 11.4327 1.21962 11.3086 1.3218 11.2041C1.42398 11.0996 1.54531 11.0167 1.67884 10.9603C1.81238 10.9038 1.9555 10.8748 2.1 10.875ZM19.7 9.1875V18.75C19.6994 19.3466 19.4675 19.9185 19.055 20.3403C18.6425 20.7622 18.0833 20.9994 17.5 21H6.5C5.9167 20.9994 5.35746 20.7622 4.945 20.3403C4.53255 19.9185 4.30058 19.3466 4.3 18.75V9.1875C4.29988 8.81812 4.37093 8.45234 4.50909 8.11106C4.64725 7.76978 4.84981 7.45968 5.10519 7.19849C5.36058 6.93731 5.66378 6.73014 5.99748 6.58884C6.33118 6.44755 6.68883 6.37488 7.05 6.375H10.9V4.125C10.9 3.82663 11.0159 3.54048 11.2222 3.3295C11.4285 3.11853 11.7083 3 12 3C12.2917 3 12.5715 3.11853 12.7778 3.3295C12.9841 3.54048 13.1 3.82663 13.1 4.125V6.375H16.95C17.3112 6.37488 17.6688 6.44755 18.0025 6.58884C18.3362 6.73014 18.6394 6.93731 18.8948 7.19849C19.1502 7.45968 19.3527 7.76978 19.4909 8.11106C19.6291 8.45234 19.7001 8.81812 19.7 9.1875ZM10.075 12C10.075 11.7219 9.99436 11.45 9.84327 11.2187C9.69218 10.9875 9.47744 10.8072 9.22619 10.7008C8.97494 10.5944 8.69847 10.5665 8.43175 10.6208C8.16503 10.675 7.92003 10.809 7.72773 11.0056C7.53543 11.2023 7.40448 11.4529 7.35142 11.7257C7.29837 11.9984 7.3256 12.2812 7.42967 12.5381C7.53374 12.7951 7.70997 13.0147 7.93609 13.1693C8.16221 13.3238 8.42805 13.4062 8.7 13.4062C8.88057 13.4063 9.05938 13.3699 9.22621 13.2992C9.39303 13.2286 9.54462 13.125 9.6723 12.9944C9.79999 12.8638 9.90127 12.7088 9.97036 12.5382C10.0395 12.3675 10.075 12.1847 10.075 12ZM9.8 16.5H7.6V17.625H9.8V16.5ZM13.1 16.5H10.9V17.625H13.1V16.5ZM16.675 12C16.675 11.7219 16.5944 11.45 16.4433 11.2187C16.2922 10.9875 16.0774 10.8072 15.8262 10.7008C15.5749 10.5944 15.2985 10.5665 15.0318 10.6208C14.765 10.675 14.52 10.809 14.3277 11.0056C14.1354 11.2023 14.0045 11.4529 13.9514 11.7257C13.8984 11.9984 13.9256 12.2812 14.0297 12.5381C14.1337 12.7951 14.31 13.0147 14.5361 13.1693C14.7622 13.3238 15.0281 13.4062 15.3 13.4062C15.4806 13.4063 15.6594 13.3699 15.8262 13.2992C15.993 13.2286 16.1446 13.125 16.2723 12.9944C16.4 12.8638 16.5013 12.7088 16.5704 12.5382C16.6395 12.3675 16.675 12.1847 16.675 12ZM16.4 16.5H14.2V17.625H16.4V16.5ZM23 12V16.5C23.0002 16.6478 22.9718 16.7942 22.9166 16.9307C22.8614 17.0673 22.7804 17.1914 22.6782 17.2959C22.576 17.4004 22.4547 17.4833 22.3212 17.5397C22.1876 17.5962 22.0445 17.6252 21.9 17.625H20.8V10.875H21.9C22.0445 10.8748 22.1876 10.9038 22.3212 10.9603C22.4547 11.0167 22.576 11.0996 22.6782 11.2041C22.7804 11.3086 22.8614 11.4327 22.9166 11.5693C22.9718 11.7058 23.0002 11.8522 23 12Z" fill="#8C9FB1"/>
</g>
</g>
<defs>
<filter id="filter0_i_34377_215" x="1" y="3" width="22" height="19" filterUnits="userSpaceOnUse" color-interpolation-filters="sRGB">
<feFlood flood-opacity="0" result="BackgroundImageFix"/>
<feBlend mode="normal" in="SourceGraphic" in2="BackgroundImageFix" result="shape"/>
<feColorMatrix in="SourceAlpha" type="matrix" values="0 0 0 0 0 0 0 0 0 0 0 0 0 0 0 0 0 0 127 0" result="hardAlpha"/>
<feOffset dy="1"/>
<feGaussianBlur stdDeviation="1"/>
<feComposite in2="hardAlpha" operator="arithmetic" k2="-1" k3="1"/>
<feColorMatrix type="matrix" values="0 0 0 0 0.351493 0 0 0 0 0.39658 0 0 0 0 0.441667 0 0 0 1 0"/>
<feBlend mode="normal" in2="shape" result="effect1_innerShadow_34377_215"/>
</filter>
</defs>
</svg>
