<svg width="24" height="24" viewBox="0 0 24 24" fill="none" xmlns="http://www.w3.org/2000/svg">
<g id="Icon/Settings" clip-path="url(#clip0_34262_55)">
<g id="Group 353" filter="url(#filter0_i_34262_55)">
<path id="Vector" d="M12 15C10.3431 15 9 13.6569 9 12C9 10.3431 10.3431 9 12 9C13.6569 9 15 10.3431 15 12C15 13.6569 13.6569 15 12 15Z" stroke="#8C9FB1" stroke-width="3" stroke-linecap="round" stroke-linejoin="round"/>
<path id="Vector_2" d="M5.27273 14.7273C5.39374 15.0015 5.42984 15.3056 5.37637 15.6005C5.3229 15.8954 5.18231 16.1676 4.97273 16.3818L4.91818 16.4364C4.74913 16.6052 4.61503 16.8057 4.52353 17.0265C4.43203 17.2472 4.38493 17.4838 4.38493 17.7227C4.38493 17.9617 4.43203 18.1983 4.52353 18.419C4.61503 18.6397 4.74913 18.8402 4.91818 19.0091C5.08704 19.1781 5.28757 19.3122 5.50829 19.4037C5.72901 19.4952 5.96561 19.5423 6.20454 19.5423C6.44348 19.5423 6.68008 19.4952 6.9008 19.4037C7.12152 19.3122 7.32205 19.1781 7.49091 19.0091L7.54545 18.9545C7.75971 18.745 8.03183 18.6044 8.32674 18.5509C8.62164 18.4974 8.9258 18.5335 9.2 18.6545C9.46888 18.7698 9.6982 18.9611 9.85972 19.205C10.0212 19.4489 10.1079 19.7347 10.1091 20.0273V20.1818C10.1091 20.664 10.3006 21.1265 10.6416 21.4675C10.9826 21.8084 11.4451 22 11.9273 22C12.4095 22 12.8719 21.8084 13.2129 21.4675C13.5539 21.1265 13.7455 20.664 13.7455 20.1818V20.1C13.7525 19.7991 13.8499 19.5073 14.025 19.2625C14.2001 19.0176 14.4448 18.8312 14.7273 18.7273C15.0015 18.6063 15.3056 18.5702 15.6005 18.6236C15.8954 18.6771 16.1676 18.8177 16.3818 19.0273L16.4364 19.0818C16.6052 19.2509 16.8057 19.385 17.0265 19.4765C17.2472 19.568 17.4838 19.6151 17.7227 19.6151C17.9617 19.6151 18.1983 19.568 18.419 19.4765C18.6397 19.385 18.8402 19.2509 19.0091 19.0818C19.1781 18.913 19.3122 18.7124 19.4037 18.4917C19.4952 18.271 19.5423 18.0344 19.5423 17.7955C19.5423 17.5565 19.4952 17.3199 19.4037 17.0992C19.3122 16.8785 19.1781 16.678 19.0091 16.5091L18.9545 16.4545C18.745 16.2403 18.6044 15.9682 18.5509 15.6733C18.4974 15.3784 18.5335 15.0742 18.6545 14.8C18.7698 14.5311 18.9611 14.3018 19.205 14.1403C19.4489 13.9788 19.7347 13.8921 20.0273 13.8909H20.1818C20.664 13.8909 21.1265 13.6994 21.4675 13.3584C21.8084 13.0174 22 12.5549 22 12.0727C22 11.5905 21.8084 11.1281 21.4675 10.7871C21.1265 10.4461 20.664 10.2545 20.1818 10.2545H20.1C19.7991 10.2475 19.5073 10.1501 19.2625 9.97501C19.0176 9.79991 18.8312 9.55521 18.7273 9.27273C18.6063 8.99853 18.5702 8.69437 18.6236 8.39947C18.6771 8.10456 18.8177 7.83244 19.0273 7.61818L19.0818 7.56364C19.2509 7.39478 19.385 7.19425 19.4765 6.97353C19.568 6.7528 19.6151 6.51621 19.6151 6.27727C19.6151 6.03834 19.568 5.80174 19.4765 5.58102C19.385 5.36029 19.2509 5.15977 19.0818 4.99091C18.913 4.82186 18.7124 4.68775 18.4917 4.59626C18.271 4.50476 18.0344 4.45766 17.7955 4.45766C17.5565 4.45766 17.3199 4.50476 17.0992 4.59626C16.8785 4.68775 16.678 4.82186 16.5091 4.99091L16.4545 5.04545C16.2403 5.25503 15.9682 5.39562 15.6733 5.4491C15.3784 5.50257 15.0742 5.46647 14.8 5.34545H14.7273C14.4584 5.23022 14.2291 5.03887 14.0676 4.79497C13.906 4.55107 13.8193 4.26526 13.8182 3.97273V3.81818C13.8182 3.33597 13.6266 2.87351 13.2856 2.53253C12.9447 2.19156 12.4822 2 12 2C11.5178 2 11.0553 2.19156 10.7144 2.53253C10.3734 2.87351 10.1818 3.33597 10.1818 3.81818V3.9C10.1807 4.19253 10.094 4.47834 9.93245 4.72224C9.77092 4.96614 9.54161 5.15749 9.27273 5.27273C8.99853 5.39374 8.69437 5.42984 8.39946 5.37637C8.10456 5.3229 7.83244 5.18231 7.61818 4.97273L7.56364 4.91818C7.39478 4.74913 7.19425 4.61503 6.97353 4.52353C6.7528 4.43203 6.51621 4.38493 6.27727 4.38493C6.03833 4.38493 5.80174 4.43203 5.58102 4.52353C5.36029 4.61503 5.15977 4.74913 4.99091 4.91818C4.82186 5.08704 4.68775 5.28757 4.59625 5.50829C4.50476 5.72901 4.45766 5.96561 4.45766 6.20455C4.45766 6.44348 4.50476 6.68008 4.59625 6.9008C4.68775 7.12152 4.82186 7.32205 4.99091 7.49091L5.04545 7.54545C5.25503 7.75971 5.39562 8.03183 5.44909 8.32674C5.50257 8.62164 5.46647 8.9258 5.34545 9.2V9.27273C5.23022 9.54161 5.03887 9.77092 4.79497 9.93245C4.55107 10.094 4.26526 10.1807 3.97273 10.1818H3.81818C3.33597 10.1818 2.87351 10.3734 2.53253 10.7144C2.19156 11.0553 2 11.5178 2 12C2 12.4822 2.19156 12.9447 2.53253 13.2856C2.87351 13.6266 3.33597 13.8182 3.81818 13.8182H3.9C4.19253 13.8193 4.47834 13.906 4.72224 14.0676C4.96614 14.2291 5.15749 14.4584 5.27273 14.7273V14.7273Z" stroke="#8C9FB1" stroke-width="3" stroke-linecap="round" stroke-linejoin="round"/>
</g>
</g>
<defs>
<filter id="filter0_i_34262_55" x="0.5" y="0.5" width="23" height="24" filterUnits="userSpaceOnUse" color-interpolation-filters="sRGB">
<feFlood flood-opacity="0" result="BackgroundImageFix"/>
<feBlend mode="normal" in="SourceGraphic" in2="BackgroundImageFix" result="shape"/>
<feColorMatrix in="SourceAlpha" type="matrix" values="0 0 0 0 0 0 0 0 0 0 0 0 0 0 0 0 0 0 127 0" result="hardAlpha"/>
<feOffset dy="1"/>
<feGaussianBlur stdDeviation="1"/>
<feComposite in2="hardAlpha" operator="arithmetic" k2="-1" k3="1"/>
<feColorMatrix type="matrix" values="0 0 0 0 0.351493 0 0 0 0 0.39658 0 0 0 0 0.441667 0 0 0 1 0"/>
<feBlend mode="normal" in2="shape" result="effect1_innerShadow_34262_55"/>
</filter>
<clipPath id="clip0_34262_55">
<rect width="24" height="24" fill="white" transform="matrix(-1 0 0 1 24 0)"/>
</clipPath>
</defs>
</svg>
