<svg width="32" height="32" viewBox="0 0 32 32" fill="none" xmlns="http://www.w3.org/2000/svg">
<g id="M-logo 1">
<path id="Vector" d="M31.2321 12.4864C30.9761 12.1664 30.7009 12.0064 30.3873 12.0064C29.6385 12.0064 28.9025 12.8512 28.8641 12.896L25.9969 16.4992L25.7473 16.8192V19.9936C26.5665 19.4176 27.5521 19.0912 28.6145 19.0912C29.6769 19.0912 30.6625 19.4176 31.4817 19.9936V12.8064L31.2321 12.4864Z" />
<path id="Vector_2" d="M12.6464 11.3152C12.6464 11.264 12.6144 10.7776 12.416 10.3104C12.1664 9.70883 11.7824 9.41443 11.2448 9.41443H10.9952L0.806404 22.336C-0.179196 23.5648 0.0704042 25.3696 1.2992 26.3488C2.528 27.328 4.416 27.0848 5.312 25.856L12.64 16.5568V11.3152H12.6464Z" />
<path id="Vector_3" d="M26.3231 6.06078L18.6175 15.8144L18.7007 7.94878C18.7839 5.16478 15.2575 3.93598 13.5359 6.14398L11.2383 9.09438C12.8767 9.09438 12.9599 11.3088 12.9599 11.3088V24.256C12.9599 26.9632 16.4031 28.192 18.0415 26.0608L25.7471 16.3072L28.6143 12.704C28.6143 12.704 30.2527 10.7392 31.4815 12.2944V7.94878C31.4879 5.07518 28.0447 4.01278 26.3231 6.06078Z" />
<path id="Vector_4" d="M28.7841 21.1392H28.5345C26.8149 21.1392 25.4209 22.5332 25.4209 24.2528C25.4209 25.9724 26.8149 27.3664 28.5345 27.3664H28.7841C30.5037 27.3664 31.8977 25.9724 31.8977 24.2528C31.8977 22.5332 30.5037 21.1392 28.7841 21.1392Z" />
</g>
</svg>
