<svg width="24" height="24" viewBox="0 0 24 24" fill="none" xmlns="http://www.w3.org/2000/svg">
<g id="Vector">
<g id="Vector_2" filter="url(#filter0_i_34234_1465)">
<path d="M2 21.1151C2 19.4876 2 17.86 2 16.2324C2.00731 16.2481 2.0141 16.2632 2.02663 16.2903C2.03185 16.2637 2.03551 16.2512 2.03655 16.2387C2.05587 16.0439 2.14046 15.8762 2.26317 15.7299C2.49919 15.4486 2.80831 15.3293 3.17174 15.333C3.49914 15.3361 3.82706 15.3335 4.15446 15.3335C4.17743 15.3335 4.20041 15.3335 4.22495 15.3335C4.22495 15.2622 4.22495 15.1997 4.22495 15.1366C4.2239 14.108 4.22286 13.0799 4.22338 12.0513C4.22338 11.982 4.22808 11.9122 4.23957 11.844C4.3038 11.4706 4.49804 11.1873 4.83588 11.0091C5.0317 10.906 5.24422 10.8883 5.46144 10.8883C7.24046 10.8894 9.01948 10.8888 10.799 10.8888C10.8267 10.8888 10.8544 10.8888 10.8873 10.8888V8.66597H10.8105C10.4784 8.66597 10.1468 8.66597 9.81474 8.66597C9.66853 8.66597 9.52493 8.64931 9.3876 8.59566C8.93436 8.4191 8.66702 8.01651 8.66702 7.50871C8.66702 6.03792 8.66702 4.5666 8.66702 3.0958C8.66702 2.56144 9.06908 2.10156 9.60013 2.02552C9.61527 2.02344 9.62885 2.00885 9.64347 2C11.1974 2 12.7509 2 14.3048 2C14.343 2.00885 14.3806 2.01875 14.4187 2.02604C14.5894 2.05729 14.7502 2.11302 14.886 2.22447C15.1889 2.47186 15.3372 2.788 15.3351 3.18278C15.3299 4.14161 15.3335 5.10096 15.3335 6.05979C15.3335 6.54155 15.3335 7.02331 15.3335 7.50507C15.3335 7.92328 15.1732 8.25765 14.8197 8.4915C14.6223 8.62222 14.3999 8.66285 14.1696 8.66597C13.8396 8.67014 13.5101 8.66701 13.1801 8.66701H13.107C13.107 8.71076 13.107 8.74514 13.107 8.77951C13.108 9.44356 13.1091 10.1076 13.1101 10.7716C13.1101 10.8888 13.1091 10.8888 13.2281 10.8888C14.9748 10.8888 16.7219 10.8888 18.4686 10.8899C18.5553 10.8899 18.6425 10.8883 18.7286 10.8946C19.1051 10.9206 19.3944 11.0951 19.5996 11.4112C19.7437 11.6336 19.7782 11.8815 19.7777 12.1393C19.7756 13.1851 19.7751 14.2309 19.774 15.2767C19.774 15.2934 19.7756 15.3101 19.7771 15.3335H19.8576C20.1876 15.3335 20.517 15.3325 20.8471 15.334C20.9948 15.3345 21.1416 15.3502 21.281 15.4043C21.7159 15.5731 22 15.9976 22 16.483C22 17.8845 22 19.2865 22 20.6881C22 20.8006 21.9984 20.9141 21.9864 21.0255C21.9504 21.3578 21.7906 21.6182 21.5118 21.8026C21.3791 21.8901 21.2371 21.9578 21.069 21.9708C21.0841 21.9844 21.093 21.9922 21.1019 22H16.2191C16.2379 21.9927 16.2562 21.9854 16.2666 21.9813C16.1679 21.951 16.0588 21.9333 15.9638 21.8859C15.5387 21.675 15.3366 21.3182 15.3351 20.8521C15.3314 19.3745 15.3325 17.897 15.3351 16.4194C15.3351 16.1611 15.4254 15.9309 15.5925 15.7335C15.8311 15.4512 16.1408 15.3288 16.5068 15.333C16.8342 15.3366 17.1621 15.3335 17.4895 15.3335C17.5125 15.3335 17.5355 15.3335 17.5553 15.3335V13.1138H6.44415V15.3335C6.47601 15.3335 6.50368 15.3335 6.53136 15.3335C6.91933 15.3377 7.30782 15.3356 7.69579 15.3481C7.90309 15.3549 8.08846 15.4418 8.2451 15.5762C8.54326 15.8319 8.67224 16.1574 8.67015 16.5533C8.66232 17.9225 8.66754 19.2912 8.66649 20.6605C8.66649 20.7776 8.66336 20.8948 8.65448 21.0115C8.63255 21.2854 8.51663 21.5162 8.3109 21.6969C8.14798 21.8406 7.96418 21.9484 7.73704 21.9719C7.75061 21.9844 7.76001 21.9922 7.76889 22H2.88559C2.90439 21.9927 2.92267 21.9854 2.93311 21.9813C2.83494 21.951 2.72477 21.9344 2.6313 21.8865C2.27048 21.7016 2.04699 21.4208 2.03968 21.0141C2.03133 21.0354 2.01566 21.075 2.00052 21.1146L2 21.1151ZM13.1065 4.22807H10.8925C10.8914 4.24682 10.8894 4.2614 10.8894 4.2765C10.8883 4.98378 10.8878 5.69053 10.8857 6.3978C10.8857 6.44207 10.9055 6.44676 10.941 6.44676C11.6329 6.4452 12.3248 6.44468 13.0167 6.44363C13.0459 6.44363 13.0751 6.44363 13.1065 6.44363V4.22807ZM4.22234 17.5611C4.22234 17.5959 4.22234 17.6241 4.22234 17.6522C4.22182 18.3444 4.22182 19.036 4.21973 19.7277C4.21973 19.7756 4.24061 19.7797 4.27873 19.7797C4.96173 19.7782 5.64524 19.7777 6.32823 19.7766C6.36426 19.7766 6.40029 19.7766 6.43893 19.7766V17.5611H4.22234ZM19.7719 19.7766V17.5631H17.5558C17.5558 17.6105 17.5558 17.6517 17.5558 17.6928C17.5553 18.3694 17.5553 19.0464 17.5527 19.723C17.5527 19.7719 17.5699 19.7803 17.6128 19.7803C18.2916 19.7782 18.9704 19.7777 19.6497 19.7766C19.6884 19.7766 19.727 19.7766 19.7714 19.7766H19.7719Z" fill="#8C9FB1"/>
</g>
</g>
<defs>
<filter id="filter0_i_34234_1465" x="2" y="2" width="20" height="21" filterUnits="userSpaceOnUse" color-interpolation-filters="sRGB">
<feFlood flood-opacity="0" result="BackgroundImageFix"/>
<feBlend mode="normal" in="SourceGraphic" in2="BackgroundImageFix" result="shape"/>
<feColorMatrix in="SourceAlpha" type="matrix" values="0 0 0 0 0 0 0 0 0 0 0 0 0 0 0 0 0 0 127 0" result="hardAlpha"/>
<feOffset dy="1"/>
<feGaussianBlur stdDeviation="1"/>
<feComposite in2="hardAlpha" operator="arithmetic" k2="-1" k3="1"/>
<feColorMatrix type="matrix" values="0 0 0 0 0.352941 0 0 0 0 0.396078 0 0 0 0 0.443137 0 0 0 1 0"/>
<feBlend mode="normal" in2="shape" result="effect1_innerShadow_34234_1465"/>
</filter>
</defs>
</svg>
