<?xml version="1.0" encoding="UTF-8"?>
<svg id="Layer_1" xmlns="http://www.w3.org/2000/svg" xmlns:xlink="http://www.w3.org/1999/xlink" version="1.1" viewBox="0 0 1000 476.7">
  <!-- Generator: Adobe Illustrator 29.5.1, SVG Export Plug-In . SVG Version: 2.1.0 Build 141)  -->
  <defs>
    <style>
      .st0 {
        fill: none;
      }

      .st1 {
        fill: #1b1464;
      }

      .st2 {
        fill: url(#linear-gradient2);
      }

      .st3 {
        fill: url(#linear-gradient1);
      }

      .st4 {
        fill: url(#linear-gradient3);
      }

      .st5 {
        fill: url(#linear-gradient6);
      }

      .st6 {
        fill: url(#linear-gradient5);
      }

      .st7 {
        fill: url(#linear-gradient4);
      }

      .st8 {
        fill: #ffcb00;
      }

      .st9 {
        fill: url(#linear-gradient);
      }
    </style>
    <linearGradient id="linear-gradient" x1="712" y1="284.1" x2="727.7" y2="95.1" gradientUnits="userSpaceOnUse">
      <stop offset="0" stop-color="#09a7fd"/>
      <stop offset=".2" stop-color="#099efd"/>
      <stop offset=".6" stop-color="#0986fd"/>
      <stop offset="1" stop-color="#0967fd"/>
    </linearGradient>
    <linearGradient id="linear-gradient1" x1="498.9" y1="289" x2="567.1" y2="121.1" xlink:href="#linear-gradient"/>
    <linearGradient id="linear-gradient2" x1="911" y1="130.9" x2="911" y2="263.7" gradientUnits="userSpaceOnUse">
      <stop offset="0" stop-color="#036bfe"/>
      <stop offset="1" stop-color="#08a7ff"/>
    </linearGradient>
    <linearGradient id="linear-gradient3" x1="356.3" y1="131.8" x2="356.8" y2="231.4" xlink:href="#linear-gradient2"/>
    <linearGradient id="linear-gradient4" x1="126.6" y1="142.1" x2="43.5" y2="244.5" xlink:href="#linear-gradient2"/>
    <linearGradient id="linear-gradient5" x1="213.4" y1="109.5" x2="133.8" y2="205.8" xlink:href="#linear-gradient2"/>
    <linearGradient id="linear-gradient6" x1="224.6" y1="298.7" x2="215.4" y2="185.9" xlink:href="#linear-gradient2"/>
  </defs>
  <path class="st9" d="M800.6,196.7c0,18.2,0,36.5,0,54.7,0,9.5-2.5,17.5-12.4,21.1-9.7,3.6-17.5.3-22.8-8-3.6-5.7-6.7-1.5-9.7,0-33.5,15.6-65.5,13.1-94.3-10.1-25.1-20.3-33.9-47.6-24.8-78.4,9.4-31.9,32.9-49.3,65.4-55.3,19.4-3.6,37.6.4,54.9,9.1,4.1,2,6.2,2.7,9.2-1.9,5.2-8.1,13.4-10.1,22.3-6.9,8.7,3.1,12.2,10.1,12.2,19,0,19,0,37.9,0,56.9h-.1ZM753.1,196.7c0-19.4-16.4-35.7-37-35-23.2.8-36.2,13.2-37.1,35.1-.8,19.1,16.8,35.1,36.9,35,20.3,0,37.1-16,37.1-35.2Z"/>
  <path class="st3" d="M557.8,207.3c-16.6,20.8-33.2,41.6-49.7,62.4-5.2,6.5-10.6,11.9-20.1,11.4-12.2-.7-21-8-21.2-20.3-.4-39.3-.4-78.6,0-117.8.1-12.5,10-20.8,22.2-20.3,11.7.5,19.7,9,19.8,21.5.2,17.5,0,35.1,0,53.8,7-4.9,10.5-11.7,15-17.4,12.7-15.9,25.5-31.8,38.3-47.7,7.9-9.8,17.1-13.1,26.9-9.4,10.9,4.1,13.6,12.9,13.5,23.7-.3,36.5-.1,73-.2,109.4,0,15.3-8.3,24.9-21.1,24.9-12.9,0-21.1-9.7-21.2-25,0-16.1,0-32.2,0-48.3-.7-.3-1.5-.6-2.2-1Z"/>
  <path class="st2" d="M910.8,220c12.1-28.6,23.6-55.7,34.9-82.7,3.6-8.5,8.5-15.5,18.6-16.7,18.2-2.2,29.3,14.2,21.6,32.7-10.8,26.1-22.1,52-33.2,78-15.9,37.4-31.7,74.9-47.6,112.3-4.7,11-12.2,15.8-22.9,14.9-9.7-.8-15.2-6.7-18.2-15.3-2-5.7-.4-11.1,1.9-16.4,6.2-14.8,12.4-29.7,18.9-44.4,2.3-5.2,2.3-9.6,0-14.9-16.3-37.6-32.2-75.4-48.4-113-8.1-18.9,1.9-35.6,20.8-33.9,9.6.9,14.9,6.9,18.4,15.3,11.3,27.3,22.8,54.6,35.2,84.2Z"/>
  <path class="st4" d="M439.1,197.8c-.4,42.6-37.7,76.6-83.4,76.2-45.4-.5-82.3-35.9-81.5-78.2.8-42.7,38.1-76.9,83.2-76.5,46.2.5,83.3,37,81.7,78.5ZM356.9,231.9c20,0,37.3-16.6,37.2-35.5-.1-19.1-17.6-35.1-37.7-34.8-19.8.3-39.3,18.6-38.5,36.1.8,17.6,19.8,34.3,39.1,34.2Z"/>
  <polygon class="st0" points="208.2 195.3 196.4 208.9 208.2 195.3 208.2 195.3"/>
  <path class="st7" d="M103.2,155.6v50.1c-16,20.2-34.3,41.4-50.4,61.6-1.3,1.7-2.6,3.4-3.9,5-8.7,10.4-21.4,12.4-30.8,5-9.6-7.6-10.8-20.2-2.4-30.8,17.6-22.4,35.4-44.7,53.1-67,9.7-12.3,19.4-24.4,29.1-36.7,3.4,3.3,5.4,8,5.4,12.8Z"/>
  <g>
    <path class="st6" d="M208.2,195.3l5.4-6.2,5-5.7c3.4-3.8,9-4.6,13.3-1.9l6.8,4.3-.3-39.7c0-.4,0-.8,0-1.1h0c0-.1,0-.1,0-.1,0-.7,0-1.5,0-2.2-.6-11-4.5-15.7-14.6-18.8-10.7-3.3-17.4-.5-25.3,9.7-16.8,21.5-33.8,42.8-52.8,66.8,0-19.9,0-36.6,0-53.3,0-12.4-5.2-20.5-16.4-23.7-10.1-2.9-17.7,1.9-23.8,9.7-2.5,3.2-5,6.4-7.6,9.6-9.7,12.3-19.4,24.5-29.1,36.7-17.7,22.3-35.5,44.6-53.1,67-8.3,10.6-7.2,23.3,2.4,30.8,9.4,7.4,22.1,5.3,30.8-5,1.4-1.6,2.6-3.3,3.9-5,16.1-20.2,34.3-41.4,50.4-61.6v1.8c0,16.7,0,33.3,0,49.9,0,12.4,5.3,20.6,15.2,23.8,8.6,2.8,15.1-.1,20.5-5.3h0c1.4-1.4,2.8-2.9,4.1-4.5,1.7-2.1,3.4-4.2,5-6.3l33-38.7h0c0,0,15.3-18.1,15.3-18.1v.4l11.9-13.6h0Z"/>
    <path class="st5" d="M238.7,185.9h0s-6.8-4.3-6.8-4.3c-4.3-2.8-10-2-13.3,1.9l-5,5.7-5.4,6.2-11.9,13.6v28c8.8-17.4,42.2-9.2,42.5-.9l-.2-50.1Z"/>
    <circle class="st8" cx="217.7" cy="260.2" r="21.5"/>
  </g>
  <g>
    <path class="st1" d="M321.7,340.2c-5-1.1-8.3-3.8-8-9,.2-4.8,3.4-7.6,8.1-7.4,5.1.3,8.4,3.5,8.1,8.6-.3,4.5-3.7,7-8.2,7.8Z"/>
    <path class="st1" d="M567.1,329.4c.4,7.6-3,10.2-7.2,10.4-4.8.2-8.3-2.5-8.2-8,0-4.8,2.6-7.7,7.3-7.9,5.2-.2,7.8,3,8.1,5.6Z"/>
    <g>
      <path class="st1" d="M201.8,340.2v-24.7l-3.2-.4c-.4,0-.7-.2-1-.4-.3-.2-.4-.5-.4-.9v-2.1h4.6v-2.8c0-1.7.2-3.1.7-4.4.5-1.3,1.1-2.4,2-3.3.9-.9,1.9-1.6,3.1-2,1.2-.5,2.6-.7,4.1-.7s2.5.2,3.6.6v2.6c-.1.4-.3.6-.6.7s-.7.1-1.3.1h-.9c-.9,0-1.7.1-2.4.3-.7.2-1.3.6-1.8,1.1-.5.5-.9,1.2-1.2,2-.3.8-.4,1.9-.4,3.1v2.7h8.4v3.7h-8.2v24.8h-5.1Z"/>
      <path class="st1" d="M241.3,340.2h-2.3c-.5,0-.9,0-1.2-.2-.3-.2-.5-.5-.6-1l-.6-2.7c-.8.7-1.5,1.3-2.2,1.8-.7.5-1.5,1-2.3,1.4-.8.4-1.7.7-2.6.8-.9.2-1.9.3-3,.3s-2.2-.2-3.2-.5c-1-.3-1.8-.8-2.6-1.4-.7-.6-1.3-1.4-1.7-2.4-.4-1-.6-2.1-.6-3.4s.3-2.3.9-3.3c.6-1.1,1.6-2,3.1-2.8,1.4-.8,3.2-1.5,5.5-2,2.3-.5,5.1-.8,8.3-.8v-2.3c0-2.3-.5-4-1.4-5.1-1-1.2-2.4-1.7-4.3-1.7s-2.3.2-3.1.5c-.8.3-1.6.7-2.2,1.1-.6.4-1.2.7-1.6,1.1-.4.3-.9.5-1.3.5s-.6,0-.9-.3c-.3-.2-.5-.4-.6-.7l-.9-1.6c1.6-1.5,3.3-2.7,5.2-3.5,1.9-.8,3.9-1.1,6.2-1.1s3.1.3,4.3.8c1.3.5,2.3,1.3,3.2,2.2.9,1,1.5,2.1,1.9,3.5.4,1.4.7,2.8.7,4.5v18.6ZM228,337.1c.9,0,1.7,0,2.5-.3s1.4-.4,2.1-.8c.7-.3,1.3-.7,1.9-1.2.6-.5,1.2-1,1.8-1.6v-6c-2.3,0-4.3.1-6,.4-1.6.3-3,.7-4,1.2-1,.5-1.8,1-2.3,1.7-.5.7-.7,1.4-.7,2.2s.1,1.4.4,2c.2.6.6,1,1,1.4.4.4.9.6,1.5.8.6.2,1.2.2,1.9.2Z"/>
      <path class="st1" d="M265.6,316c-.2.4-.6.6-1.1.6s-.6-.1-1-.3c-.4-.2-.8-.4-1.3-.7-.5-.3-1.2-.5-1.9-.7-.7-.2-1.6-.3-2.6-.3s-1.6.1-2.3.3c-.7.2-1.3.5-1.8.9-.5.4-.9.8-1.1,1.3-.3.5-.4,1.1-.4,1.6s.2,1.4.6,1.9c.4.5,1,.9,1.7,1.3.7.4,1.5.7,2.4,1,.9.3,1.8.6,2.8.9.9.3,1.9.7,2.8,1,.9.4,1.7.9,2.4,1.4.7.6,1.3,1.3,1.7,2.1.4.8.6,1.8.6,3s-.2,2.6-.7,3.7c-.5,1.1-1.2,2.1-2.1,3s-2.1,1.5-3.4,2c-1.4.5-2.9.7-4.7.7s-3.9-.3-5.5-1c-1.6-.7-3-1.5-4.2-2.5l1.2-1.9c.2-.2.3-.4.5-.6s.5-.2.8-.2.7.1,1.1.4c.4.3.8.6,1.4.9.5.3,1.2.6,2,.9.8.3,1.7.4,2.9.4s1.9-.1,2.6-.4c.7-.3,1.4-.6,1.9-1,.5-.4.9-.9,1.1-1.5.2-.6.4-1.2.4-1.8s-.2-1.5-.6-2c-.4-.5-1-1-1.7-1.3-.7-.4-1.5-.7-2.4-1-.9-.3-1.8-.6-2.8-.9-.9-.3-1.9-.7-2.8-1-.9-.4-1.7-.9-2.4-1.5-.7-.6-1.3-1.3-1.7-2.2-.4-.9-.6-1.9-.6-3.2s.2-2.2.7-3.2c.5-1,1.1-1.9,2-2.7.9-.8,2-1.4,3.2-1.8,1.3-.5,2.7-.7,4.4-.7s3.6.3,5.1.9c1.5.6,2.8,1.4,3.9,2.5l-1.1,1.9Z"/>
      <path class="st1" d="M282.7,340.7c-2.3,0-4.1-.6-5.3-1.9-1.2-1.3-1.8-3.1-1.8-5.5v-17.8h-3.5c-.3,0-.6,0-.8-.3-.2-.2-.3-.5-.3-.8v-2l4.8-.6,1.2-9c0-.3.2-.5.4-.7.2-.2.5-.3.8-.3h2.6v10h8.3v3.7h-8.3v17.4c0,1.2.3,2.1.9,2.7.6.6,1.4.9,2.3.9s1,0,1.4-.2.7-.3,1-.5c.3-.2.5-.3.7-.5.2-.1.4-.2.5-.2.3,0,.5.2.7.5l1.5,2.4c-.9.8-1.9,1.5-3.2,1.9-1.2.5-2.5.7-3.8.7Z"/>
      <path class="st1" d="M376.9,316c-.2.4-.6.6-1.1.6s-.6-.1-1-.3c-.4-.2-.8-.4-1.3-.7-.5-.3-1.2-.5-1.9-.7-.7-.2-1.6-.3-2.6-.3s-1.6.1-2.3.3c-.7.2-1.3.5-1.8.9-.5.4-.9.8-1.1,1.3-.3.5-.4,1.1-.4,1.6s.2,1.4.6,1.9c.4.5,1,.9,1.7,1.3s1.5.7,2.4,1c.9.3,1.8.6,2.8.9.9.3,1.9.7,2.8,1,.9.4,1.7.9,2.4,1.4.7.6,1.3,1.3,1.7,2.1.4.8.6,1.8.6,3s-.2,2.6-.7,3.7c-.5,1.1-1.2,2.1-2.1,3s-2.1,1.5-3.4,2c-1.4.5-2.9.7-4.7.7s-3.9-.3-5.5-1c-1.6-.7-3-1.5-4.2-2.5l1.2-1.9c.2-.2.3-.4.5-.6s.5-.2.8-.2.7.1,1.1.4c.4.3.8.6,1.4.9.5.3,1.2.6,2,.9.8.3,1.7.4,2.9.4s1.9-.1,2.6-.4c.7-.3,1.4-.6,1.9-1,.5-.4.9-.9,1.1-1.5.2-.6.4-1.2.4-1.8s-.2-1.5-.6-2c-.4-.5-1-1-1.7-1.3-.7-.4-1.5-.7-2.4-1-.9-.3-1.8-.6-2.8-.9-.9-.3-1.9-.7-2.8-1-.9-.4-1.7-.9-2.4-1.5-.7-.6-1.3-1.3-1.7-2.2-.4-.9-.6-1.9-.6-3.2s.2-2.2.7-3.2c.5-1,1.1-1.9,2-2.7.9-.8,2-1.4,3.2-1.8,1.3-.5,2.7-.7,4.4-.7s3.6.3,5.1.9c1.5.6,2.8,1.4,3.9,2.5l-1.1,1.9Z"/>
      <path class="st1" d="M396.7,310.7c1.7,0,3.3.3,4.8.9,1.5.6,2.7,1.4,3.8,2.5,1.1,1.1,1.9,2.5,2.5,4.1.6,1.6.9,3.5.9,5.5s0,1.3-.3,1.6-.5.4-1,.4h-19.3c0,1.8.3,3.4.7,4.8.5,1.4,1.1,2.5,1.9,3.4.8.9,1.8,1.6,2.9,2,1.1.4,2.4.7,3.7.7s2.4-.1,3.3-.4c.9-.3,1.7-.6,2.4-1,.7-.3,1.2-.7,1.7-1,.4-.3.8-.4,1.2-.4s.7.2,1,.5l1.4,1.9c-.6.8-1.4,1.4-2.3,2-.9.6-1.8,1-2.8,1.4-1,.4-2,.6-3.1.8-1.1.2-2.1.3-3.2.3-2,0-3.9-.3-5.5-1-1.7-.7-3.2-1.7-4.4-3-1.2-1.3-2.2-2.9-2.9-4.9-.7-1.9-1-4.1-1-6.6s.3-3.9.9-5.7c.6-1.8,1.5-3.3,2.7-4.6,1.2-1.3,2.6-2.3,4.3-3,1.7-.7,3.6-1.1,5.7-1.1ZM396.8,314.5c-2.5,0-4.4.7-5.8,2.1-1.4,1.4-2.3,3.4-2.6,5.9h15.8c0-1.2-.2-2.3-.5-3.3-.3-1-.8-1.8-1.4-2.6-.6-.7-1.4-1.3-2.3-1.7-.9-.4-1.9-.6-3.1-.6Z"/>
      <path class="st1" d="M435,316.3c-.2.2-.3.4-.5.5-.2.1-.4.2-.7.2s-.6-.1-.9-.4-.8-.5-1.3-.8c-.5-.3-1.1-.5-1.9-.8-.7-.2-1.6-.4-2.7-.4s-2.7.3-3.8.8c-1.1.5-2,1.2-2.7,2.2-.7,1-1.3,2.1-1.7,3.5-.4,1.4-.6,2.9-.6,4.6s.2,3.3.6,4.7c.4,1.4,1,2.5,1.7,3.4.7.9,1.6,1.6,2.7,2.1,1,.5,2.2.7,3.5.7s2.3-.1,3.1-.4c.8-.3,1.5-.6,2-1,.5-.4,1-.7,1.3-1,.3-.3.7-.4,1-.4s.8.2,1,.5l1.4,1.9c-1.3,1.5-2.8,2.7-4.7,3.4-1.9.7-3.9,1.1-6,1.1s-3.5-.3-5.1-1c-1.6-.7-2.9-1.6-4.1-2.9-1.1-1.3-2-2.8-2.7-4.7-.7-1.9-1-4-1-6.3s.3-4.2.9-6c.6-1.8,1.5-3.4,2.6-4.7,1.2-1.3,2.6-2.4,4.3-3.1,1.7-.7,3.6-1.1,5.8-1.1s3.8.3,5.4,1c1.6.7,3,1.6,4.2,2.8l-1.3,1.8Z"/>
      <path class="st1" d="M446.4,311.2v18.5c0,2.2.5,3.9,1.5,5.1,1,1.2,2.5,1.8,4.6,1.8s2.9-.4,4.2-1.1c1.3-.7,2.5-1.7,3.6-3v-21.4h5.1v29h-3c-.7,0-1.2-.4-1.4-1.1l-.4-3.1c-1.3,1.4-2.7,2.5-4.2,3.4-1.6.9-3.4,1.3-5.4,1.3s-3-.3-4.2-.8c-1.2-.5-2.2-1.3-3.1-2.2-.8-1-1.4-2.1-1.8-3.5s-.6-2.9-.6-4.5v-18.5h5.1Z"/>
      <path class="st1" d="M473.8,340.2v-29h2.9c.6,0,.9.1,1.1.3.2.2.4.6.4,1.1l.3,4.5c1-2,2.2-3.6,3.7-4.7,1.5-1.1,3.2-1.7,5.1-1.7s1.5,0,2.2.3c.6.2,1.3.4,1.8.8l-.7,3.8c-.1.5-.4.7-.9.7s-.7,0-1.2-.3c-.6-.2-1.3-.3-2.3-.3-1.8,0-3.3.5-4.5,1.5-1.2,1-2.2,2.5-3,4.5v18.5h-5.1Z"/>
      <path class="st1" d="M508.4,310.7c1.7,0,3.3.3,4.8.9,1.5.6,2.7,1.4,3.8,2.5,1.1,1.1,1.9,2.5,2.5,4.1.6,1.6.9,3.5.9,5.5s0,1.3-.3,1.6-.5.4-1,.4h-19.3c0,1.8.3,3.4.7,4.8.5,1.4,1.1,2.5,1.9,3.4.8.9,1.8,1.6,2.9,2,1.1.4,2.4.7,3.7.7s2.4-.1,3.3-.4c.9-.3,1.7-.6,2.4-1,.7-.3,1.2-.7,1.7-1,.4-.3.8-.4,1.2-.4s.7.2,1,.5l1.4,1.9c-.6.8-1.4,1.4-2.3,2-.9.6-1.8,1-2.8,1.4-1,.4-2,.6-3.1.8-1.1.2-2.1.3-3.2.3-2,0-3.9-.3-5.5-1-1.7-.7-3.2-1.7-4.4-3-1.2-1.3-2.2-2.9-2.9-4.9-.7-1.9-1-4.1-1-6.6s.3-3.9.9-5.7c.6-1.8,1.5-3.3,2.7-4.6,1.2-1.3,2.6-2.3,4.3-3,1.7-.7,3.6-1.1,5.7-1.1ZM508.6,314.5c-2.5,0-4.4.7-5.8,2.1-1.4,1.4-2.3,3.4-2.6,5.9h15.8c0-1.2-.2-2.3-.5-3.3-.3-1-.8-1.8-1.4-2.6-.6-.7-1.4-1.3-2.3-1.7-.9-.4-1.9-.6-3.1-.6Z"/>
      <path class="st1" d="M593.4,340.2v-29h2.9c.6,0,.9.1,1.1.3.2.2.4.6.4,1.1l.3,4.5c1-2,2.2-3.6,3.7-4.7,1.5-1.1,3.2-1.7,5.1-1.7s1.5,0,2.2.3c.6.2,1.3.4,1.8.8l-.7,3.8c-.1.5-.4.7-.9.7s-.7,0-1.2-.3c-.6-.2-1.3-.3-2.3-.3-1.8,0-3.3.5-4.5,1.5-1.2,1-2.2,2.5-3,4.5v18.5h-5.1Z"/>
      <path class="st1" d="M627.9,310.7c1.7,0,3.3.3,4.8.9,1.5.6,2.7,1.4,3.8,2.5,1.1,1.1,1.9,2.5,2.5,4.1.6,1.6.9,3.5.9,5.5s0,1.3-.3,1.6c-.2.3-.5.4-1,.4h-19.3c0,1.8.3,3.4.7,4.8.5,1.4,1.1,2.5,1.9,3.4.8.9,1.8,1.6,2.9,2,1.1.4,2.4.7,3.7.7s2.4-.1,3.3-.4c.9-.3,1.7-.6,2.4-1,.7-.3,1.2-.7,1.7-1,.4-.3.8-.4,1.2-.4s.7.2,1,.5l1.4,1.9c-.6.8-1.4,1.4-2.3,2-.9.6-1.8,1-2.8,1.4-1,.4-2,.6-3.1.8-1.1.2-2.1.3-3.2.3-2,0-3.9-.3-5.5-1-1.7-.7-3.2-1.7-4.4-3-1.2-1.3-2.2-2.9-2.9-4.9-.7-1.9-1-4.1-1-6.6s.3-3.9.9-5.7c.6-1.8,1.5-3.3,2.7-4.6,1.2-1.3,2.6-2.3,4.3-3,1.7-.7,3.6-1.1,5.7-1.1ZM628.1,314.5c-2.5,0-4.4.7-5.8,2.1-1.4,1.4-2.3,3.4-2.6,5.9h15.8c0-1.2-.2-2.3-.5-3.3-.3-1-.8-1.8-1.4-2.6-.6-.7-1.4-1.3-2.3-1.7-.9-.4-1.9-.6-3.1-.6Z"/>
      <path class="st1" d="M652.2,298v42.2h-5.1v-42.2h5.1Z"/>
      <path class="st1" d="M668,302.1c0,.5-.1,1-.3,1.4-.2.4-.5.8-.8,1.1-.3.3-.7.6-1.2.8-.4.2-.9.3-1.4.3s-1,0-1.4-.3c-.4-.2-.8-.5-1.1-.8-.3-.3-.6-.7-.8-1.1-.2-.4-.3-.9-.3-1.4s0-1,.3-1.4c.2-.4.5-.8.8-1.2.3-.3.7-.6,1.1-.8.4-.2.9-.3,1.4-.3s1,0,1.4.3c.4.2.8.5,1.2.8.3.3.6.7.8,1.2.2.4.3.9.3,1.4ZM666.8,311.2v29h-5.1v-29h5.1Z"/>
      <path class="st1" d="M697.2,340.2h-2.3c-.5,0-.9,0-1.2-.2-.3-.2-.5-.5-.6-1l-.6-2.7c-.8.7-1.5,1.3-2.2,1.8-.7.5-1.5,1-2.3,1.4-.8.4-1.7.7-2.6.8-.9.2-1.9.3-3,.3s-2.2-.2-3.2-.5c-1-.3-1.8-.8-2.6-1.4-.7-.6-1.3-1.4-1.7-2.4-.4-1-.6-2.1-.6-3.4s.3-2.3.9-3.3c.6-1.1,1.6-2,3.1-2.8,1.4-.8,3.2-1.5,5.5-2,2.3-.5,5.1-.8,8.3-.8v-2.3c0-2.3-.5-4-1.4-5.1-1-1.2-2.4-1.7-4.3-1.7s-2.3.2-3.1.5c-.8.3-1.6.7-2.2,1.1-.6.4-1.2.7-1.6,1.1-.4.3-.9.5-1.3.5s-.6,0-.9-.3c-.3-.2-.5-.4-.6-.7l-.9-1.6c1.6-1.5,3.3-2.7,5.2-3.5,1.9-.8,3.9-1.1,6.2-1.1s3.1.3,4.3.8c1.3.5,2.3,1.3,3.2,2.2.9,1,1.5,2.1,1.9,3.5.4,1.4.7,2.8.7,4.5v18.6ZM683.9,337.1c.9,0,1.7,0,2.5-.3.7-.2,1.4-.4,2.1-.8.7-.3,1.3-.7,1.9-1.2.6-.5,1.2-1,1.8-1.6v-6c-2.3,0-4.3.1-6,.4-1.6.3-3,.7-4,1.2-1,.5-1.8,1-2.3,1.7-.5.7-.7,1.4-.7,2.2s.1,1.4.4,2c.2.6.6,1,1,1.4.4.4.9.6,1.5.8.6.2,1.2.2,1.9.2Z"/>
      <path class="st1" d="M705.1,340.2v-42.2h5.1v17.4c1.2-1.4,2.6-2.5,4.1-3.4,1.6-.8,3.3-1.3,5.3-1.3s3.2.3,4.6.9c1.4.6,2.5,1.6,3.5,2.8,1,1.3,1.7,2.8,2.2,4.6.5,1.8.8,4,.8,6.4s-.3,4.1-.9,6-1.4,3.4-2.5,4.8c-1.1,1.3-2.4,2.4-4,3.2-1.6.8-3.3,1.2-5.3,1.2s-3.5-.4-4.8-1.1c-1.3-.7-2.4-1.7-3.4-3l-.3,2.6c-.2.7-.6,1.1-1.3,1.1h-3.3ZM718,314.8c-1.7,0-3.1.4-4.4,1.1-1.3.8-2.4,1.8-3.5,3.2v14c.9,1.3,1.9,2.1,3.1,2.7s2.4.8,3.7.8c2.7,0,4.8-1,6.2-2.9,1.5-1.9,2.2-4.7,2.2-8.3s-.2-3.5-.5-4.9c-.3-1.4-.8-2.5-1.4-3.3-.6-.9-1.4-1.5-2.3-1.9-.9-.4-2-.6-3.1-.6Z"/>
      <path class="st1" d="M742.6,298v42.2h-5.1v-42.2h5.1Z"/>
      <path class="st1" d="M763.1,310.7c1.7,0,3.3.3,4.8.9,1.5.6,2.7,1.4,3.8,2.5,1.1,1.1,1.9,2.5,2.5,4.1.6,1.6.9,3.5.9,5.5s0,1.3-.3,1.6-.5.4-1,.4h-19.3c0,1.8.3,3.4.7,4.8.5,1.4,1.1,2.5,1.9,3.4.8.9,1.8,1.6,2.9,2,1.1.4,2.4.7,3.7.7s2.4-.1,3.3-.4c.9-.3,1.7-.6,2.4-1,.7-.3,1.2-.7,1.7-1,.4-.3.8-.4,1.2-.4s.7.2,1,.5l1.4,1.9c-.6.8-1.4,1.4-2.3,2-.9.6-1.8,1-2.8,1.4-1,.4-2,.6-3.1.8-1.1.2-2.1.3-3.2.3-2,0-3.9-.3-5.5-1-1.7-.7-3.2-1.7-4.4-3-1.2-1.3-2.2-2.9-2.9-4.9-.7-1.9-1-4.1-1-6.6s.3-3.9.9-5.7c.6-1.8,1.5-3.3,2.7-4.6,1.2-1.3,2.6-2.3,4.3-3,1.7-.7,3.6-1.1,5.7-1.1ZM763.2,314.5c-2.5,0-4.4.7-5.8,2.1-1.4,1.4-2.3,3.4-2.6,5.9h15.8c0-1.2-.2-2.3-.5-3.3-.3-1-.8-1.8-1.4-2.6-.6-.7-1.4-1.3-2.3-1.7-.9-.4-1.9-.6-3.1-.6Z"/>
    </g>
  </g>
</svg>