<svg xmlns="http://www.w3.org/2000/svg" width="62" height="62" viewBox="0 0 62 62">
  <g id="Group_7" data-name="Group 7" transform="translate(-220 4560.052)">
    <rect id="Rectangle_5249" data-name="Rectangle 5249" width="62" height="62" transform="translate(220 -4560.052)" fill="none"/>
    <g id="commission_1_" data-name="commission (1)" transform="translate(223.097 -4553.031)">
      <path id="Path_23172" data-name="Path 23172" d="M2.788,183.49h8.178l11.9,5.3A6.263,6.263,0,0,0,29,188.323l24.813-15.985a4.264,4.264,0,0,0,1.3-5.948,4.38,4.38,0,0,0-5.669-1.487L28.623,175.591a.988.988,0,0,1-1.115-.186l-2.138-2.138,1.394-1.394a4.77,4.77,0,0,0,0-6.6l-3.9-3.9a7.46,7.46,0,0,0-10.5,0l-1.487,1.673H2.788A2.738,2.738,0,0,0,0,165.833V180.7a2.738,2.738,0,0,0,2.788,2.788Zm10.966-20.631a5.666,5.666,0,0,1,7.9,0l3.9,3.9a2.7,2.7,0,0,1,0,3.9l-1.394,1.394-5.855-5.855-1.3,1.3L26.3,176.8a2.8,2.8,0,0,0,3.253.465l20.817-10.78a2.465,2.465,0,0,1,3.345,1.022,2.621,2.621,0,0,1-.836,3.253L28.066,186.743a4.58,4.58,0,0,1-4.368.372l-12.453-5.576V165.368Zm-11.9,2.974a.878.878,0,0,1,.929-.929H9.293v16.728H2.788a.878.878,0,0,1-.929-.929Zm0,0" transform="translate(0 -140.741)" fill="#28da75"/>
      <path id="Path_23173" data-name="Path 23173" d="M97.859,2.07h39.032V21.586h1.859V.211H96V17.868h1.859Zm0,0" transform="translate(-84.848 -0.211)" fill="#28da75"/>
      <path id="Path_23174" data-name="Path 23174" d="M163.315,49.868V34.07h-1.859V32.211h-31.6V34.07H128V45.222h1.859V35.928a1.864,1.864,0,0,0,1.859-1.859H159.6a1.864,1.864,0,0,0,1.859,1.859v13.94Zm0,0" transform="translate(-113.131 -28.494)" fill="#28da75"/>
      <path id="Path_23175" data-name="Path 23175" d="M256,104.211h1.859v1.859H256Zm0,0" transform="translate(-226.261 -92.13)" fill="#28da75"/>
      <path id="Path_23176" data-name="Path 23176" d="M272,184.211h1.859v1.859H272Zm0,0" transform="translate(-240.403 -162.836)" fill="#28da75"/>
      <path id="Path_23177" data-name="Path 23177" d="M233.84,109.378,242.2,99.164l1.439,1.177-8.356,10.215Zm0,0" transform="translate(-206.675 -87.669)" fill="#28da75"/>
      <path id="Path_23178" data-name="Path 23178" d="M213.153,74.434A10.2,10.2,0,0,0,192.8,73.412l1.859.186a8.406,8.406,0,1,1,8.364,9.2v1.859A10.174,10.174,0,0,0,213.153,74.434Zm0,0" transform="translate(-170.404 -56.776)" fill="#28da75"/>
    </g>
  </g>
</svg>
