<svg xmlns="http://www.w3.org/2000/svg" width="520" height="520" viewBox="0 0 520 520">
  <g id="Group_36533" data-name="Group 36533" transform="translate(341 -9481)">
    <rect id="Rectangle_5936" data-name="Rectangle 5936" width="520" height="520" transform="translate(-341 9481)" fill="none"/>
    <g id="Group_36532" data-name="Group 36532" transform="translate(-2348 8665)">
      <g id="Group_36511" data-name="Group 36511" transform="translate(13070.432 -5916.228)">
        <path id="cloud_1_" data-name="cloud (1)" d="M95.6,122.683a95.516,95.516,0,0,1,18.943,1.9A78.074,78.074,0,0,1,223.879,69.067a104.21,104.21,0,1,1,195.908,71.125,86.865,86.865,0,1,1-2.61,173.71L95.6,313.892a95.6,95.6,0,1,1,0-191.207Zm0,0" transform="translate(-11049.549 6852.753)" fill="#1572e8" opacity="0.18"/>
        <path id="cloud_1_2" data-name="cloud (1)" d="M44.319,57.083a44.286,44.286,0,0,1,8.784.879,36.193,36.193,0,0,1,50.682-25.735A48.31,48.31,0,1,1,194.6,65.2a40.269,40.269,0,1,1-1.21,80.528l-149.076,0a44.32,44.32,0,1,1,0-88.64Zm0,0" transform="translate(-10909.395 6816.836)" fill="#1572e8" opacity="0.18"/>
        <path id="cloud_1_3" data-name="cloud (1)" d="M351.433,105.648a82.214,82.214,0,0,0-16.306,1.631,67.2,67.2,0,0,0-94.1-47.779A89.694,89.694,0,1,0,72.406,120.718a74.764,74.764,0,1,0,2.246,149.511l276.781-.011a82.286,82.286,0,0,0,0-164.572Zm0,0" transform="translate(-11060.431 6842.335)" fill="#1572e8" opacity="0.7"/>
        <g id="Group_39326" data-name="Group 39326" transform="translate(-11759.396 6495.264)">
          <path id="Path_74630" data-name="Path 74630" d="M949.964,434a99.964,99.964,0,1,0,99.964,99.964A100.077,100.077,0,0,0,949.964,434Zm0,7.337a92.218,92.218,0,0,1,59.9,22.036L879.373,593.864a92.574,92.574,0,0,1,70.591-152.527Zm0,185.254a92.341,92.341,0,0,1-65.622-27.319l130.93-130.93a92.582,92.582,0,0,1-65.308,158.249Z" fill="#fff"/>
          <g id="Group_39333" data-name="Group 39333" transform="translate(885.21 488.18)">
            <path id="Path_74631" data-name="Path 74631" d="M955.747,514.71a71.668,71.668,0,0,0-51.008,21.127,3.571,3.571,0,0,0,5.05,5.05,64.941,64.941,0,0,1,60.769-17.322l5.893-5.851A71.656,71.656,0,0,0,955.747,514.71Z" transform="translate(-889.662 -494.871)" fill="#fff"/>
            <path id="Path_74632" data-name="Path 74632" d="M957,535.917a52.344,52.344,0,0,0-37.252,15.432,3.57,3.57,0,0,0,5.044,5.049,45.357,45.357,0,0,1,29.03-13.218l7.158-7.107C959.657,535.977,958.331,535.913,957,535.917Z" transform="translate(-890.912 -496.629)" fill="#fff"/>
            <path id="Path_74633" data-name="Path 74633" d="M894.489,525.062a84.84,84.84,0,0,1,90.714-19.09l5.518-5.479a92.013,92.013,0,0,0-101.282,19.52,3.571,3.571,0,0,0,5.049,5.049Z" transform="translate(-888.393 -493.077)" fill="#fff"/>
            <path id="Path_74634" data-name="Path 74634" d="M959.809,580.388a7.141,7.141,0,1,0,5.05,2.091A7.141,7.141,0,0,0,959.809,580.388Z" transform="translate(-893.722 -500.315)" fill="#fff"/>
            <path id="Path_74635" data-name="Path 74635" d="M1028.921,520.987h0a91.986,91.986,0,0,0-21.778-16.151l-5.339,5.3a84.691,84.691,0,0,1,22.065,15.9l0,0a3.57,3.57,0,0,0,5.066-5.032Z" transform="translate(-897.795 -494.052)" fill="#fff"/>
            <path id="Path_74636" data-name="Path 74636" d="M990.843,521l-5.541,5.5a64.734,64.734,0,0,1,23.169,14.906,3.571,3.571,0,0,0,5.049-5.05A71.643,71.643,0,0,0,990.843,521Z" transform="translate(-896.427 -495.392)" fill="#fff"/>
            <path id="Path_74637" data-name="Path 74637" d="M974.019,537.654l-6.112,6.068a45.33,45.33,0,0,1,25.365,12.818l0,0a3.57,3.57,0,0,0,5.05-5.049A52.343,52.343,0,0,0,974.019,537.654Z" transform="translate(-894.985 -496.773)" fill="#fff"/>
            <path id="Path_74638" data-name="Path 74638" d="M958.548,557.339a32.774,32.774,0,0,0-5.74.5l-15.349,15.239a3.541,3.541,0,0,0,2.776-1.013,25.9,25.9,0,0,1,36.625,0l0,0a3.57,3.57,0,0,0,5.05-5.049A32.824,32.824,0,0,0,958.548,557.339Z" transform="translate(-892.461 -498.404)" fill="#fff"/>
          </g>
        </g>
      </g>
    </g>
  </g>
</svg>
