<svg xmlns="http://www.w3.org/2000/svg" width="113.083" height="138.899" viewBox="0 0 113.083 138.899">
  <g id="Group_39245" data-name="Group 39245" transform="translate(-3230 -1191)">
    <g id="Group_39244" data-name="Group 39244">
      <g id="Group_39243" data-name="Group 39243">
        <g id="Group_39242" data-name="Group 39242">
          <g id="Group_39241" data-name="Group 39241">
            <g id="Group_39240" data-name="Group 39240">
              <g id="Group_39239" data-name="Group 39239">
                <g id="pdf-file" transform="translate(3185.194 1191)">
                  <path id="Path_75650" data-name="Path 75650" d="M125.3,301.094c0-2.307-1.6-3.682-4.425-3.682a9.793,9.793,0,0,0-2.343.223v7.4a8.887,8.887,0,0,0,1.9.145C123.441,305.181,125.3,303.66,125.3,301.094Z" transform="translate(-52.487 -211.731)" fill="#08aaff"/>
                  <path id="Path_75651" data-name="Path 75651" d="M196.369,297.681a11.677,11.677,0,0,0-2.565.223v16.391a10.241,10.241,0,0,0,1.971.114c5.131.036,8.477-2.788,8.477-8.772C204.288,300.432,201.239,297.681,196.369,297.681Z" transform="translate(-106.073 -211.923)" fill="#08aaff"/>
                  <path id="Path_75652" data-name="Path 75652" d="M122.778,0H66.99A14.8,14.8,0,0,0,52.207,14.783V69.449H50.763a5.956,5.956,0,0,0-5.957,5.957v36.128a5.956,5.956,0,0,0,5.957,5.957h1.444v6.625A14.8,14.8,0,0,0,66.99,138.9h76.12a14.8,14.8,0,0,0,14.779-14.783V34.988ZM60.434,81.926a46.7,46.7,0,0,1,7.657-.517c3.494,0,5.984.667,7.657,2.007a7.324,7.324,0,0,1,2.677,5.8,8.008,8.008,0,0,1-2.3,5.948C74.187,96.983,71.326,97.8,67.98,97.8a14.671,14.671,0,0,1-1.934-.109v8.958H60.434Zm82.676,47.919H66.99a5.735,5.735,0,0,1-5.725-5.73v-6.625h70.959a5.956,5.956,0,0,0,5.957-5.957V75.407a5.956,5.956,0,0,0-5.957-5.957H61.265V14.783A5.733,5.733,0,0,1,66.99,9.062l52.4-.055V28.377a10.255,10.255,0,0,0,10.252,10.252l18.974-.054.213,85.541A5.731,5.731,0,0,1,143.11,129.846Zm-61.066-23.31V81.926a51.025,51.025,0,0,1,7.657-.517c4.758,0,7.843.854,10.261,2.674,2.6,1.934,4.236,5.017,4.236,9.444,0,4.795-1.746,8.1-4.164,10.148-2.638,2.193-6.654,3.233-11.56,3.233A49.045,49.045,0,0,1,82.044,106.536Zm40.571-14.57v4.608h-9v10.075h-5.687V81.6h15.315V86.24h-9.628v5.726Z" transform="translate(0)" fill="#08aaff"/>
                </g>
              </g>
            </g>
          </g>
        </g>
      </g>
    </g>
  </g>
</svg>
